<svg width="1172" height="157" xmlns="http://www.w3.org/2000/svg" xmlns:xlink="http://www.w3.org/1999/xlink" xml:space="preserve" overflow="hidden"><defs><clipPath id="clip0"><rect x="62" y="243" width="1172" height="157"/></clipPath></defs><g clip-path="url(#clip0)" transform="translate(-62 -243)"><text fill="#FFFFFF" font-family="Staatliches,Staatliches_MSFontService,sans-serif" font-weight="400" font-size="527" transform="matrix(0.39651 0 0 0.397288 214.074 394)">STREAMLIST</text><path d="M1273.91 560.169 1325.95 487.311 1273.91 414.452 1299.41 414.452 1351.45 487.311 1299.41 560.169 1273.91 560.169ZM1335.84 560.169 1387.88 487.311 1335.84 414.452 1361.34 414.452 1413.38 487.311 1361.34 560.169 1335.84 560.169Z" fill="#FFFFFF" transform="matrix(1 0 0 1.00196 -181.167 -166.857)"/><path d="M244.572 560.169 296.614 487.311 244.572 414.452 270.073 414.452 322.115 487.311 270.073 560.169 244.572 560.169ZM306.502 560.169 358.544 487.311 306.502 414.452 332.002 414.452 384.044 487.311 332.002 560.169 306.502 560.169Z" fill="#FFFFFF" transform="matrix(1 0 0 1.00196 -181.167 -166.857)"/></g></svg>